<mxfile host="Electron" agent="Mozilla/5.0 (Macintosh; Intel Mac OS X 10_15_7) AppleWebKit/537.36 (KHTML, like Gecko) draw.io/26.0.9 Chrome/128.0.6613.186 Electron/32.2.5 Safari/537.36" version="26.0.9">
  <diagram name="Page-1" id="6La7k3xLREVDk8hHXm5S">
    <mxGraphModel dx="1552" dy="646" grid="1" gridSize="10" guides="1" tooltips="1" connect="1" arrows="1" fold="1" page="1" pageScale="1" pageWidth="1100" pageHeight="850" math="0" shadow="0">
      <root>
        <mxCell id="0" />
        <mxCell id="1" parent="0" />
        <mxCell id="nGzVLEio5h6gb2ZC-jLj-1" value="drawio" style="rounded=1;whiteSpace=wrap;html=1;fillColor=#f8cecc;strokeColor=#b85450;fillStyle=cross-hatch;sketch=1;curveFitting=1;jiggle=2;" vertex="1" parent="1">
          <mxGeometry x="120" y="80" width="120" height="60" as="geometry" />
        </mxCell>
        <mxCell id="nGzVLEio5h6gb2ZC-jLj-2" value="plwb.html" style="rounded=1;whiteSpace=wrap;html=1;fillColor=#f8cecc;strokeColor=#b85450;fillStyle=cross-hatch;sketch=1;curveFitting=1;jiggle=2;" vertex="1" parent="1">
          <mxGeometry x="400" y="80" width="120" height="60" as="geometry" />
        </mxCell>
        <mxCell id="nGzVLEio5h6gb2ZC-jLj-8" style="edgeStyle=orthogonalEdgeStyle;rounded=1;orthogonalLoop=1;jettySize=auto;html=1;exitX=0.5;exitY=1;exitDx=0;exitDy=0;entryX=0.5;entryY=0;entryDx=0;entryDy=0;curved=0;fillColor=#d5e8d4;strokeColor=#82b366;strokeWidth=3;" edge="1" parent="1" source="nGzVLEio5h6gb2ZC-jLj-3" target="nGzVLEio5h6gb2ZC-jLj-4">
          <mxGeometry relative="1" as="geometry" />
        </mxCell>
        <mxCell id="nGzVLEio5h6gb2ZC-jLj-3" value="choreographer" style="rounded=1;whiteSpace=wrap;html=1;fillColor=#f8cecc;strokeColor=#b85450;fillStyle=cross-hatch;sketch=1;curveFitting=1;jiggle=2;" vertex="1" parent="1">
          <mxGeometry x="260" y="200" width="120" height="60" as="geometry" />
        </mxCell>
        <mxCell id="nGzVLEio5h6gb2ZC-jLj-6" style="edgeStyle=orthogonalEdgeStyle;rounded=0;orthogonalLoop=1;jettySize=auto;html=1;exitX=0.5;exitY=1;exitDx=0;exitDy=0;entryX=0.5;entryY=0;entryDx=0;entryDy=0;" edge="1" parent="1" source="nGzVLEio5h6gb2ZC-jLj-4" target="nGzVLEio5h6gb2ZC-jLj-5">
          <mxGeometry relative="1" as="geometry" />
        </mxCell>
        <mxCell id="nGzVLEio5h6gb2ZC-jLj-19" value="" style="edgeStyle=orthogonalEdgeStyle;shape=connector;curved=0;rounded=1;orthogonalLoop=1;jettySize=auto;html=1;strokeColor=#82b366;align=center;verticalAlign=middle;fontFamily=Helvetica;fontSize=11;fontColor=default;labelBackgroundColor=default;endArrow=classic;fillColor=#d5e8d4;strokeWidth=3;" edge="1" parent="1" source="nGzVLEio5h6gb2ZC-jLj-4" target="nGzVLEio5h6gb2ZC-jLj-5">
          <mxGeometry relative="1" as="geometry" />
        </mxCell>
        <mxCell id="nGzVLEio5h6gb2ZC-jLj-4" value="das2json&lt;div&gt;node das2json.js rt2all.drawio&amp;nbsp;&lt;/div&gt;" style="rounded=1;whiteSpace=wrap;html=1;sketch=1;curveFitting=1;jiggle=2;fillColor=#f8cecc;strokeColor=#b85450;opacity=50;" vertex="1" parent="1">
          <mxGeometry x="230" y="320" width="180" height="60" as="geometry" />
        </mxCell>
        <mxCell id="nGzVLEio5h6gb2ZC-jLj-7" style="edgeStyle=orthogonalEdgeStyle;rounded=1;orthogonalLoop=1;jettySize=auto;html=1;exitX=1;exitY=0.5;exitDx=0;exitDy=0;entryX=1;entryY=0.5;entryDx=0;entryDy=0;curved=0;fillColor=#d5e8d4;strokeColor=#82b366;strokeWidth=3;dashed=1;dashPattern=1 4;" edge="1" parent="1" source="nGzVLEio5h6gb2ZC-jLj-5" target="nGzVLEio5h6gb2ZC-jLj-3">
          <mxGeometry relative="1" as="geometry" />
        </mxCell>
        <mxCell id="nGzVLEio5h6gb2ZC-jLj-5" value="python3 main.py . - &#39;&#39; main rt2all.drawio.json" style="rounded=1;whiteSpace=wrap;html=1;sketch=1;curveFitting=1;jiggle=2;fillColor=#f8cecc;strokeColor=#b85450;opacity=50;" vertex="1" parent="1">
          <mxGeometry x="195" y="440" width="250" height="60" as="geometry" />
        </mxCell>
        <mxCell id="nGzVLEio5h6gb2ZC-jLj-9" value="" style="shape=flexArrow;endArrow=classic;html=1;rounded=1;strokeColor=#666666;align=center;verticalAlign=middle;fontFamily=Helvetica;fontSize=11;fontColor=default;labelBackgroundColor=default;edgeStyle=orthogonalEdgeStyle;curved=0;exitX=0;exitY=0.5;exitDx=0;exitDy=0;entryX=0;entryY=0.5;entryDx=0;entryDy=0;fillColor=#f5f5f5;" edge="1" parent="1" source="nGzVLEio5h6gb2ZC-jLj-5" target="nGzVLEio5h6gb2ZC-jLj-3">
          <mxGeometry width="50" height="50" relative="1" as="geometry">
            <mxPoint x="400" y="340" as="sourcePoint" />
            <mxPoint x="450" y="290" as="targetPoint" />
          </mxGeometry>
        </mxCell>
        <mxCell id="nGzVLEio5h6gb2ZC-jLj-10" value="live_update" style="edgeLabel;html=1;align=center;verticalAlign=middle;resizable=0;points=[];fontFamily=Helvetica;fontSize=11;fontColor=default;labelBackgroundColor=default;" vertex="1" connectable="0" parent="nGzVLEio5h6gb2ZC-jLj-9">
          <mxGeometry x="-0.3908" y="-1" relative="1" as="geometry">
            <mxPoint as="offset" />
          </mxGeometry>
        </mxCell>
        <mxCell id="nGzVLEio5h6gb2ZC-jLj-11" value="" style="shape=flexArrow;endArrow=classic;html=1;rounded=1;strokeColor=#666666;align=center;verticalAlign=middle;fontFamily=Helvetica;fontSize=11;fontColor=default;labelBackgroundColor=default;edgeStyle=orthogonalEdgeStyle;curved=0;exitX=0.5;exitY=0;exitDx=0;exitDy=0;entryX=0;entryY=0.5;entryDx=0;entryDy=0;fillColor=#f5f5f5;" edge="1" parent="1" source="nGzVLEio5h6gb2ZC-jLj-3" target="nGzVLEio5h6gb2ZC-jLj-2">
          <mxGeometry width="50" height="50" relative="1" as="geometry">
            <mxPoint x="205" y="480" as="sourcePoint" />
            <mxPoint x="270" y="240" as="targetPoint" />
          </mxGeometry>
        </mxCell>
        <mxCell id="nGzVLEio5h6gb2ZC-jLj-12" value="live_update" style="edgeLabel;html=1;align=center;verticalAlign=middle;resizable=0;points=[];fontFamily=Helvetica;fontSize=11;fontColor=default;labelBackgroundColor=default;" vertex="1" connectable="0" parent="nGzVLEio5h6gb2ZC-jLj-11">
          <mxGeometry x="-0.3908" y="-1" relative="1" as="geometry">
            <mxPoint as="offset" />
          </mxGeometry>
        </mxCell>
        <mxCell id="nGzVLEio5h6gb2ZC-jLj-13" value="" style="shape=flexArrow;endArrow=classic;startArrow=classic;html=1;rounded=1;strokeColor=default;align=center;verticalAlign=middle;fontFamily=Helvetica;fontSize=11;fontColor=default;labelBackgroundColor=default;edgeStyle=orthogonalEdgeStyle;curved=0;entryX=0.75;entryY=1;entryDx=0;entryDy=0;exitX=0.25;exitY=0;exitDx=0;exitDy=0;dashed=1;" edge="1" parent="1" source="nGzVLEio5h6gb2ZC-jLj-3" target="nGzVLEio5h6gb2ZC-jLj-1">
          <mxGeometry width="100" height="100" relative="1" as="geometry">
            <mxPoint x="380" y="370" as="sourcePoint" />
            <mxPoint x="480" y="270" as="targetPoint" />
          </mxGeometry>
        </mxCell>
        <mxCell id="nGzVLEio5h6gb2ZC-jLj-14" value="check" style="edgeLabel;html=1;align=center;verticalAlign=middle;resizable=0;points=[];fontFamily=Helvetica;fontSize=11;fontColor=default;labelBackgroundColor=default;" vertex="1" connectable="0" parent="nGzVLEio5h6gb2ZC-jLj-13">
          <mxGeometry x="-0.0286" y="1" relative="1" as="geometry">
            <mxPoint as="offset" />
          </mxGeometry>
        </mxCell>
        <mxCell id="nGzVLEio5h6gb2ZC-jLj-15" value="" style="shape=flexArrow;endArrow=classic;html=1;rounded=1;strokeColor=#666666;align=center;verticalAlign=middle;fontFamily=Helvetica;fontSize=11;fontColor=default;labelBackgroundColor=default;edgeStyle=orthogonalEdgeStyle;curved=0;exitX=0;exitY=0.75;exitDx=0;exitDy=0;entryX=0;entryY=0.25;entryDx=0;entryDy=0;fillColor=#f5f5f5;" edge="1" parent="1" source="nGzVLEio5h6gb2ZC-jLj-5" target="nGzVLEio5h6gb2ZC-jLj-3">
          <mxGeometry width="50" height="50" relative="1" as="geometry">
            <mxPoint x="205" y="480" as="sourcePoint" />
            <mxPoint x="270" y="240" as="targetPoint" />
            <Array as="points">
              <mxPoint x="150" y="485" />
              <mxPoint x="150" y="215" />
            </Array>
          </mxGeometry>
        </mxCell>
        <mxCell id="nGzVLEio5h6gb2ZC-jLj-16" value="results" style="edgeLabel;html=1;align=center;verticalAlign=middle;resizable=0;points=[];fontFamily=Helvetica;fontSize=11;fontColor=default;labelBackgroundColor=default;" vertex="1" connectable="0" parent="nGzVLEio5h6gb2ZC-jLj-15">
          <mxGeometry x="-0.3908" y="-1" relative="1" as="geometry">
            <mxPoint as="offset" />
          </mxGeometry>
        </mxCell>
        <mxCell id="nGzVLEio5h6gb2ZC-jLj-17" value="" style="shape=flexArrow;endArrow=classic;html=1;rounded=1;strokeColor=#666666;align=center;verticalAlign=middle;fontFamily=Helvetica;fontSize=11;fontColor=default;labelBackgroundColor=default;edgeStyle=orthogonalEdgeStyle;curved=0;exitX=0.75;exitY=0;exitDx=0;exitDy=0;entryX=0.25;entryY=1;entryDx=0;entryDy=0;fillColor=#f5f5f5;" edge="1" parent="1" source="nGzVLEio5h6gb2ZC-jLj-3" target="nGzVLEio5h6gb2ZC-jLj-2">
          <mxGeometry width="50" height="50" relative="1" as="geometry">
            <mxPoint x="330" y="210" as="sourcePoint" />
            <mxPoint x="410" y="120" as="targetPoint" />
          </mxGeometry>
        </mxCell>
        <mxCell id="nGzVLEio5h6gb2ZC-jLj-18" value="results" style="edgeLabel;html=1;align=center;verticalAlign=middle;resizable=0;points=[];fontFamily=Helvetica;fontSize=11;fontColor=default;labelBackgroundColor=default;" vertex="1" connectable="0" parent="nGzVLEio5h6gb2ZC-jLj-17">
          <mxGeometry x="-0.3908" y="-1" relative="1" as="geometry">
            <mxPoint x="17" as="offset" />
          </mxGeometry>
        </mxCell>
      </root>
    </mxGraphModel>
  </diagram>
</mxfile>
